REM DIRINDEX 1\2,1\3
REM DIRNAME cjc039,folder01,folder02
TITLE ""
FILE "2821-2840.mp3" MP3
  TRACK 01 AUDIO
    TITLE "0:"
    INDEX 01 00:00:00
  TRACK 02 AUDIO
    TITLE "2:cjc039_4641"
    INDEX 01 00:00:25
  TRACK 03 AUDIO
    TITLE "0:"
    INDEX 01 00:01:62
  TRACK 04 AUDIO
    TITLE "3:cjc039_4642"
    INDEX 01 00:02:38
  TRACK 05 AUDIO
    TITLE "0:"
    INDEX 01 00:05:52
  TRACK 06 AUDIO
    TITLE "2:cjc039_4643"
    INDEX 01 00:07:25
  TRACK 07 AUDIO
    TITLE "0:"
    INDEX 01 00:08:28
  TRACK 08 AUDIO
    TITLE "3:cjc039_4644"
    INDEX 01 00:09:04
  TRACK 09 AUDIO
    TITLE "0:"
    INDEX 01 00:12:61
  TRACK 10 AUDIO
    TITLE "2:cjc039_4645"
    INDEX 01 00:14:41
  TRACK 11 AUDIO
    TITLE "0:"
    INDEX 01 00:15:56
  TRACK 12 AUDIO
    TITLE "3:cjc039_4646"
    INDEX 01 00:16:34
  TRACK 13 AUDIO
    TITLE "0:"
    INDEX 01 00:19:20
  TRACK 14 AUDIO
    TITLE "2:cjc039_4647"
    INDEX 01 00:21:00
  TRACK 15 AUDIO
    TITLE "0:"
    INDEX 01 00:22:23
  TRACK 16 AUDIO
    TITLE "3:cjc039_4648"
    INDEX 01 00:23:03
  TRACK 17 AUDIO
    TITLE "0:"
    INDEX 01 00:26:50
  TRACK 18 AUDIO
    TITLE "2:cjc039_4649"
    INDEX 01 00:28:33
  TRACK 19 AUDIO
    TITLE "0:"
    INDEX 01 00:29:44
  TRACK 20 AUDIO
    TITLE "3:cjc039_4650"
    INDEX 01 00:30:26
  TRACK 21 AUDIO
    TITLE "0:"
    INDEX 01 00:33:26
  TRACK 22 AUDIO
    TITLE "2:cjc039_4651"
    INDEX 01 00:35:02
  TRACK 23 AUDIO
    TITLE "0:"
    INDEX 01 00:36:25
  TRACK 24 AUDIO
    TITLE "3:cjc039_4652"
    INDEX 01 00:37:01
  TRACK 25 AUDIO
    TITLE "0:"
    INDEX 01 00:41:08
  TRACK 26 AUDIO
    TITLE "2:cjc039_4653"
    INDEX 01 00:42:65
  TRACK 27 AUDIO
    TITLE "0:"
    INDEX 01 00:43:62
  TRACK 28 AUDIO
    TITLE "3:cjc039_4654"
    INDEX 01 00:44:44
  TRACK 29 AUDIO
    TITLE "0:"
    INDEX 01 00:46:70
  TRACK 30 AUDIO
    TITLE "2:cjc039_4655"
    INDEX 01 00:48:49
  TRACK 31 AUDIO
    TITLE "0:"
    INDEX 01 00:49:70
  TRACK 32 AUDIO
    TITLE "3:cjc039_4656"
    INDEX 01 00:50:52
  TRACK 33 AUDIO
    TITLE "0:"
    INDEX 01 00:57:01
  TRACK 34 AUDIO
    TITLE "2:cjc039_4657"
    INDEX 01 00:58:56
  TRACK 35 AUDIO
    TITLE "0:"
    INDEX 01 00:59:61
  TRACK 36 AUDIO
    TITLE "3:cjc039_4658"
    INDEX 01 01:00:45
  TRACK 37 AUDIO
    TITLE "0:"
    INDEX 01 01:04:05
  TRACK 38 AUDIO
    TITLE "2:cjc039_4659"
    INDEX 01 01:05:56
  TRACK 39 AUDIO
    TITLE "0:"
    INDEX 01 01:07:43
  TRACK 40 AUDIO
    TITLE "3:cjc039_4660"
    INDEX 01 01:08:21
  TRACK 41 AUDIO
    TITLE "0:"
    INDEX 01 01:12:26
  TRACK 42 AUDIO
    TITLE "2:cjc039_4661"
    INDEX 01 01:14:06
  TRACK 43 AUDIO
    TITLE "0:"
    INDEX 01 01:15:50
  TRACK 44 AUDIO
    TITLE "3:cjc039_4662"
    INDEX 01 01:16:28
  TRACK 45 AUDIO
    TITLE "0:"
    INDEX 01 01:20:02
  TRACK 46 AUDIO
    TITLE "2:cjc039_4663"
    INDEX 01 01:21:53
  TRACK 47 AUDIO
    TITLE "0:"
    INDEX 01 01:23:01
  TRACK 48 AUDIO
    TITLE "3:cjc039_4664"
    INDEX 01 01:23:58
  TRACK 49 AUDIO
    TITLE "0:"
    INDEX 01 01:27:20
  TRACK 50 AUDIO
    TITLE "2:cjc039_4665"
    INDEX 01 01:28:69
  TRACK 51 AUDIO
    TITLE "0:"
    INDEX 01 01:30:17
  TRACK 52 AUDIO
    TITLE "3:cjc039_4666"
    INDEX 01 01:30:64
  TRACK 53 AUDIO
    TITLE "0:"
    INDEX 01 01:34:14
  TRACK 54 AUDIO
    TITLE "2:cjc039_4667"
    INDEX 01 01:35:63
  TRACK 55 AUDIO
    TITLE "0:"
    INDEX 01 01:36:68
  TRACK 56 AUDIO
    TITLE "3:cjc039_4668"
    INDEX 01 01:37:48
  TRACK 57 AUDIO
    TITLE "0:"
    INDEX 01 01:41:50
  TRACK 58 AUDIO
    TITLE "2:cjc039_4669"
    INDEX 01 01:43:27
  TRACK 59 AUDIO
    TITLE "0:"
    INDEX 01 01:44:38
  TRACK 60 AUDIO
    TITLE "3:cjc039_4670"
    INDEX 01 01:45:16
  TRACK 61 AUDIO
    TITLE "0:"
    INDEX 01 01:47:58
  TRACK 62 AUDIO
    TITLE "2:cjc039_4671"
    INDEX 01 01:49:35
  TRACK 63 AUDIO
    TITLE "0:"
    INDEX 01 01:50:54
  TRACK 64 AUDIO
    TITLE "3:cjc039_4672"
    INDEX 01 01:51:38
  TRACK 65 AUDIO
    TITLE "0:"
    INDEX 01 01:55:20
  TRACK 66 AUDIO
    TITLE "2:cjc039_4673"
    INDEX 01 01:57:04
  TRACK 67 AUDIO
    TITLE "0:"
    INDEX 01 01:58:44
  TRACK 68 AUDIO
    TITLE "3:cjc039_4674"
    INDEX 01 01:59:18
  TRACK 69 AUDIO
    TITLE "0:"
    INDEX 01 02:02:13
  TRACK 70 AUDIO
    TITLE "2:cjc039_4675"
    INDEX 01 02:03:61
  TRACK 71 AUDIO
    TITLE "0:"
    INDEX 01 02:05:19
  TRACK 72 AUDIO
    TITLE "3:cjc039_4676"
    INDEX 01 02:05:68
  TRACK 73 AUDIO
    TITLE "0:"
    INDEX 01 02:09:73
  TRACK 74 AUDIO
    TITLE "2:cjc039_4677"
    INDEX 01 02:11:53
  TRACK 75 AUDIO
    TITLE "0:"
    INDEX 01 02:12:62
  TRACK 76 AUDIO
    TITLE "3:cjc039_4678"
    INDEX 01 02:13:40
  TRACK 77 AUDIO
    TITLE "0:"
    INDEX 01 02:16:58
  TRACK 78 AUDIO
    TITLE "2:cjc039_4679"
    INDEX 01 02:18:31
  TRACK 79 AUDIO
    TITLE "0:"
    INDEX 01 02:19:44
  TRACK 80 AUDIO
    TITLE "3:cjc039_4680"
    INDEX 01 02:20:30
  TRACK 81 AUDIO
    TITLE "0:"
    INDEX 01 02:23:32
